# xmcd
#
# Track frame offsets:
# 150
# 11237
# 27045
# 40677
# 55590
# 72587
# 83982
# 97612
# 109065
# 126995
# 137965
# 148495
# 163792
# 181057
# 197960
# 213397
# 227377
# 240115
# 254352
#
# Disc length: 3538 seconds
#
#
# Revision: 1
# Processed by: cddbd v1.5.2PL0 Copyright (c) Steve Scherf et al.
# Submitted via: FreeRIP 2.951 
#
DISCID=050dd013
DTITLE=Forró Camisa Suada - Mulher Perigosa
DYEAR=2006
DGENRE=Country
TTITLE0=Mulher Perigosa
TTITLE1=Acidente De Amor
TTITLE2=Deixa Eu Te Amar
TTITLE3=Poder Do Seu Olhar
TTITLE4=O Amor É Ilusão
TTITLE5=Amar Amar
TTITLE6=Do Tempo Da Minha Vó
TTITLE7=O Campeão
TTITLE8=Seu Bebê
TTITLE9=Casar Pra Que
TTITLE10=Camisa Suada
TTITLE11=Me Dá Que Eu Traço
TTITLE12=Me Esqueça
TTITLE13=Meu Coração Sofre
TTITLE14=O Mais Importante É O Verdadeiro Amor
TTITLE15=Tanta Saudade
TTITLE16=Te Amar Foi Ilusão
TTITLE17=Liguei Pra Dizer Que Te Amo
TTITLE18=Isso É Mentira
EXTD=YEAR: 2006
EXTT0=
EXTT1=
EXTT2=
EXTT3=
EXTT4=
EXTT5=
EXTT6=
EXTT7=
EXTT8=
EXTT9=
EXTT10=
EXTT11=
EXTT12=
EXTT13=
EXTT14=
EXTT15=
EXTT16=
EXTT17=
EXTT18=
PLAYORDER=
